<svg xmlns="http://www.w3.org/2000/svg" xmlns:xlink="http://www.w3.org/1999/xlink" version="1.1" x="0px" y="0px" viewBox="-3.2 -6.4 70.4 86.4" style="enable-background:new 0 0 64 64;" xml:space="preserve"><g><path d="M53.09,3.79H10.91c-3.93,0-7.12,3.2-7.12,7.12v42.18c0,3.93,3.19,7.12,7.12,7.12h42.18c3.93,0,7.12-3.19,7.12-7.12V10.91   C60.21,6.99,57.02,3.79,53.09,3.79z M17.09,55.6c-3.6,0-6.53-2.93-6.53-6.53c0-3.6,2.93-6.53,6.53-6.53c3.6,0,6.53,2.93,6.53,6.53   C23.62,52.67,20.69,55.6,17.09,55.6z M17.09,38.53c-3.6,0-6.53-2.93-6.53-6.53s2.93-6.53,6.53-6.53c3.6,0,6.53,2.93,6.53,6.53   S20.69,38.53,17.09,38.53z M17.09,21.46c-3.6,0-6.53-2.93-6.53-6.53c0-3.6,2.93-6.53,6.53-6.53c3.6,0,6.53,2.93,6.53,6.53   C23.62,18.53,20.69,21.46,17.09,21.46z M46.91,55.6c-3.6,0-6.53-2.93-6.53-6.53c0-3.6,2.93-6.53,6.53-6.53   c3.6,0,6.53,2.93,6.53,6.53C53.44,52.67,50.51,55.6,46.91,55.6z M46.91,38.53c-3.6,0-6.53-2.93-6.53-6.53s2.93-6.53,6.53-6.53   c3.6,0,6.53,2.93,6.53,6.53S50.51,38.53,46.91,38.53z M46.91,21.46c-3.6,0-6.53-2.93-6.53-6.53c0-3.6,2.93-6.53,6.53-6.53   c3.6,0,6.53,2.93,6.53,6.53C53.44,18.53,50.51,21.46,46.91,21.46z"/></g></svg>